<svg width="0" height="0" class="hidden">
  <symbol version="1.1" id="cloudy" xmlns="http://www.w3.org/2000/svg" xmlns:xlink="http://www.w3.org/1999/xlink" x="0px" y="0px" xml:space="preserve" viewBox="0 0 30 30">
    <path d="M1.56,16.9c0,0.9,0.22,1.73,0.66,2.49s1.04,1.36,1.8,1.8c0.76,0.44,1.58,0.66,2.47,0.66h10.83c0.89,0,1.72-0.22,2.48-0.66
	c0.76-0.44,1.37-1.04,1.81-1.8c0.44-0.76,0.67-1.59,0.67-2.49c0-0.66-0.14-1.33-0.42-2C22.62,13.98,23,12.87,23,11.6
	c0-0.71-0.14-1.39-0.41-2.04c-0.27-0.65-0.65-1.2-1.12-1.67C21,7.42,20.45,7.04,19.8,6.77c-0.65-0.28-1.33-0.41-2.04-0.41
	c-1.48,0-2.77,0.58-3.88,1.74c-0.77-0.44-1.67-0.66-2.7-0.66c-1.41,0-2.65,0.44-3.73,1.31c-1.08,0.87-1.78,1.99-2.08,3.35
	c-1.12,0.26-2.03,0.83-2.74,1.73S1.56,15.75,1.56,16.9z M3.27,16.9c0-0.84,0.28-1.56,0.84-2.17c0.56-0.61,1.26-0.96,2.1-1.06
	l0.5-0.03c0.12,0,0.19-0.06,0.19-0.18l0.07-0.54c0.14-1.08,0.61-1.99,1.41-2.71c0.8-0.73,1.74-1.09,2.81-1.09
	c1.1,0,2.06,0.37,2.87,1.1c0.82,0.73,1.27,1.63,1.37,2.71l0.07,0.58c0.02,0.11,0.09,0.17,0.21,0.17h1.61c0.88,0,1.64,0.32,2.28,0.96
	c0.64,0.64,0.96,1.39,0.96,2.27c0,0.91-0.32,1.68-0.95,2.32c-0.63,0.64-1.4,0.96-2.28,0.96H6.49c-0.88,0-1.63-0.32-2.27-0.97
	C3.59,18.57,3.27,17.8,3.27,16.9z M9.97,4.63c0,0.24,0.08,0.45,0.24,0.63l0.66,0.64c0.25,0.19,0.46,0.27,0.64,0.25
	c0.21,0,0.39-0.09,0.55-0.26s0.24-0.38,0.24-0.62c0-0.24-0.09-0.44-0.26-0.59l-0.59-0.66c-0.18-0.16-0.38-0.24-0.61-0.24
	c-0.24,0-0.45,0.08-0.62,0.25C10.05,4.19,9.97,4.39,9.97,4.63z M15.31,9.06c0.69-0.67,1.51-1,2.45-1c0.99,0,1.83,0.34,2.52,1.03
	c0.69,0.69,1.04,1.52,1.04,2.51c0,0.62-0.17,1.24-0.51,1.84C19.84,12.48,18.68,12,17.32,12H17C16.75,10.91,16.19,9.93,15.31,9.06z
	 M16.94,3.78c0,0.26,0.08,0.46,0.23,0.62s0.35,0.23,0.59,0.23c0.26,0,0.46-0.08,0.62-0.23c0.16-0.16,0.23-0.36,0.23-0.62V1.73
	c0-0.24-0.08-0.43-0.24-0.59s-0.36-0.23-0.61-0.23c-0.24,0-0.43,0.08-0.59,0.23s-0.23,0.35-0.23,0.59V3.78z M22.46,6.07
	c0,0.26,0.07,0.46,0.22,0.62c0.21,0.16,0.42,0.24,0.62,0.24c0.18,0,0.38-0.08,0.59-0.24l1.43-1.43c0.16-0.18,0.24-0.39,0.24-0.64
	c0-0.24-0.08-0.44-0.24-0.6c-0.16-0.16-0.36-0.24-0.59-0.24c-0.24,0-0.43,0.08-0.58,0.24l-1.47,1.43
	C22.53,5.64,22.46,5.84,22.46,6.07z M23.25,17.91c0,0.24,0.08,0.45,0.25,0.63l0.65,0.63c0.15,0.16,0.34,0.24,0.58,0.24
	s0.44-0.08,0.6-0.25c0.16-0.17,0.24-0.37,0.24-0.62c0-0.22-0.08-0.42-0.24-0.58l-0.65-0.65c-0.16-0.16-0.35-0.24-0.57-0.24
	c-0.24,0-0.44,0.08-0.6,0.24C23.34,17.47,23.25,17.67,23.25,17.91z M24.72,11.6c0,0.23,0.09,0.42,0.26,0.58
	c0.16,0.16,0.37,0.24,0.61,0.24h2.04c0.23,0,0.42-0.08,0.58-0.23s0.23-0.35,0.23-0.59c0-0.24-0.08-0.44-0.23-0.6
	s-0.35-0.25-0.58-0.25h-2.04c-0.24,0-0.44,0.08-0.61,0.25C24.8,11.17,24.72,11.37,24.72,11.6z"></path>
  </symbol>
  <symbol version="1.1" id="moon" xmlns="http://www.w3.org/2000/svg" xmlns:xlink="http://www.w3.org/1999/xlink" x="0px" y="0px" xml:space="preserve" viewBox="0 0 30 30">
    <path d="M7.91,14.48c0-0.96,0.19-1.87,0.56-2.75s0.88-1.63,1.51-2.26c0.63-0.63,1.39-1.14,2.27-1.52c0.88-0.38,1.8-0.57,2.75-0.57
	h1.14c0.16,0.04,0.23,0.14,0.23,0.28l0.05,0.88c0.04,1.27,0.49,2.35,1.37,3.24c0.88,0.89,1.94,1.37,3.19,1.42l0.82,0.07
	c0.16,0,0.24,0.08,0.24,0.23v0.98c0.01,1.28-0.3,2.47-0.93,3.56c-0.63,1.09-1.48,1.95-2.57,2.59c-1.08,0.63-2.27,0.95-3.55,0.95
	c-0.97,0-1.9-0.19-2.78-0.56s-1.63-0.88-2.26-1.51c-0.63-0.63-1.13-1.39-1.5-2.26C8.1,16.37,7.91,15.45,7.91,14.48z M9.74,14.48
	c0,0.76,0.15,1.48,0.45,2.16c0.3,0.67,0.7,1.24,1.19,1.7c0.49,0.46,1.05,0.82,1.69,1.08c0.63,0.27,1.28,0.4,1.94,0.4
	c0.58,0,1.17-0.11,1.76-0.34c0.59-0.23,1.14-0.55,1.65-0.96c0.51-0.41,0.94-0.93,1.31-1.57c0.37-0.64,0.6-1.33,0.71-2.09
	c-1.63-0.34-2.94-1.04-3.92-2.1s-1.55-2.3-1.7-3.74C13.86,9.08,13,9.37,12.21,9.9c-0.78,0.53-1.39,1.2-1.82,2.02
	C9.96,12.74,9.74,13.59,9.74,14.48z"></path>
  </symbol>
  <symbol version="1.1" id="sunny" xmlns="http://www.w3.org/2000/svg" xmlns:xlink="http://www.w3.org/1999/xlink" x="0px" y="0px" xml:space="preserve" viewBox="0 0 30 30">
    <path d="M4.37,14.62c0-0.24,0.08-0.45,0.25-0.62c0.17-0.16,0.38-0.24,0.6-0.24h2.04c0.23,0,0.42,0.08,0.58,0.25
	c0.15,0.17,0.23,0.37,0.23,0.61S8,15.06,7.85,15.23c-0.15,0.17-0.35,0.25-0.58,0.25H5.23c-0.23,0-0.43-0.08-0.6-0.25
	C4.46,15.06,4.37,14.86,4.37,14.62z M7.23,21.55c0-0.23,0.08-0.43,0.23-0.61l1.47-1.43c0.15-0.16,0.35-0.23,0.59-0.23
	c0.24,0,0.44,0.08,0.6,0.23s0.24,0.34,0.24,0.57c0,0.24-0.08,0.46-0.24,0.64L8.7,22.14c-0.41,0.32-0.82,0.32-1.23,0
	C7.31,21.98,7.23,21.78,7.23,21.55z M7.23,7.71c0-0.23,0.08-0.43,0.23-0.61C7.66,6.93,7.87,6.85,8.1,6.85
	c0.22,0,0.42,0.08,0.59,0.24l1.43,1.47c0.16,0.15,0.24,0.35,0.24,0.59c0,0.24-0.08,0.44-0.24,0.6s-0.36,0.24-0.6,0.24
	c-0.24,0-0.44-0.08-0.59-0.24L7.47,8.32C7.31,8.16,7.23,7.95,7.23,7.71z M9.78,14.62c0-0.93,0.23-1.8,0.7-2.6s1.1-1.44,1.91-1.91
	s1.67-0.7,2.6-0.7c0.7,0,1.37,0.14,2.02,0.42c0.64,0.28,1.2,0.65,1.66,1.12c0.47,0.47,0.84,1.02,1.11,1.66
	c0.27,0.64,0.41,1.32,0.41,2.02c0,0.94-0.23,1.81-0.7,2.61c-0.47,0.8-1.1,1.43-1.9,1.9c-0.8,0.47-1.67,0.7-2.61,0.7
	s-1.81-0.23-2.61-0.7c-0.8-0.47-1.43-1.1-1.9-1.9C10.02,16.43,9.78,15.56,9.78,14.62z M11.48,14.62c0,0.98,0.34,1.81,1.03,2.5
	c0.68,0.69,1.51,1.04,2.49,1.04s1.81-0.35,2.5-1.04s1.04-1.52,1.04-2.5c0-0.96-0.35-1.78-1.04-2.47c-0.69-0.68-1.52-1.02-2.5-1.02
	c-0.97,0-1.8,0.34-2.48,1.02C11.82,12.84,11.48,13.66,11.48,14.62z M14.14,22.4c0-0.24,0.08-0.44,0.25-0.6s0.37-0.24,0.6-0.24
	c0.24,0,0.45,0.08,0.61,0.24s0.24,0.36,0.24,0.6v1.99c0,0.24-0.08,0.45-0.25,0.62c-0.17,0.17-0.37,0.25-0.6,0.25
	s-0.44-0.08-0.6-0.25c-0.17-0.17-0.25-0.38-0.25-0.62V22.4z M14.14,6.9V4.86c0-0.23,0.08-0.43,0.25-0.6C14.56,4.09,14.76,4,15,4
	s0.43,0.08,0.6,0.25c0.17,0.17,0.25,0.37,0.25,0.6V6.9c0,0.23-0.08,0.42-0.25,0.58S15.23,7.71,15,7.71s-0.44-0.08-0.6-0.23
	S14.14,7.13,14.14,6.9z M19.66,20.08c0-0.23,0.08-0.42,0.23-0.56c0.15-0.16,0.34-0.23,0.56-0.23c0.24,0,0.44,0.08,0.6,0.23
	l1.46,1.43c0.16,0.17,0.24,0.38,0.24,0.61c0,0.23-0.08,0.43-0.24,0.59c-0.4,0.31-0.8,0.31-1.2,0l-1.42-1.42
	C19.74,20.55,19.66,20.34,19.66,20.08z M19.66,9.16c0-0.25,0.08-0.45,0.23-0.59l1.42-1.47c0.17-0.16,0.37-0.24,0.59-0.24
	c0.24,0,0.44,0.08,0.6,0.25c0.17,0.17,0.25,0.37,0.25,0.6c0,0.25-0.08,0.46-0.24,0.62l-1.46,1.43c-0.18,0.16-0.38,0.24-0.6,0.24
	c-0.23,0-0.41-0.08-0.56-0.24S19.66,9.4,19.66,9.16z M21.92,14.62c0-0.24,0.08-0.44,0.24-0.62c0.16-0.16,0.35-0.24,0.57-0.24h2.02
	c0.23,0,0.43,0.09,0.6,0.26c0.17,0.17,0.26,0.37,0.26,0.6s-0.09,0.43-0.26,0.6c-0.17,0.17-0.37,0.25-0.6,0.25h-2.02
	c-0.23,0-0.43-0.08-0.58-0.25S21.92,14.86,21.92,14.62z"></path>
  </symbol>
  <symbol version="1.1" id="sunrain" xmlns="http://www.w3.org/2000/svg" xmlns:xlink="http://www.w3.org/1999/xlink" x="0px" y="0px" xml:space="preserve" viewBox="0 0 30 30">
    <path d="M1.51,16.89c0,1.33,0.46,2.48,1.39,3.44s2.06,1.47,3.41,1.53c0.11,0,0.17-0.06,0.17-0.17v-1.34c0-0.11-0.06-0.17-0.17-0.17
	c-0.86-0.04-1.59-0.39-2.19-1.03s-0.9-1.4-0.9-2.26c0-0.82,0.28-1.54,0.85-2.16s1.27-0.97,2.1-1.07l0.53-0.05
	c0.13,0,0.2-0.06,0.2-0.17l0.07-0.54c0.11-1.08,0.56-1.99,1.37-2.72s1.76-1.1,2.85-1.1c1.09,0,2.04,0.37,2.86,1.1
	s1.28,1.64,1.4,2.72l0.07,0.57c0,0.12,0.06,0.19,0.17,0.19h1.62c0.89,0,1.65,0.32,2.3,0.96c0.65,0.64,0.97,1.39,0.97,2.27
	c0,0.87-0.3,1.62-0.9,2.26c-0.6,0.64-1.33,0.98-2.18,1.03c-0.12,0-0.19,0.06-0.19,0.17v1.34c0,0.11,0.06,0.17,0.19,0.17
	c1.33-0.04,2.46-0.55,3.39-1.51c0.93-0.97,1.39-2.12,1.39-3.45c0-0.72-0.14-1.39-0.42-2.01c0.78-0.97,1.17-2.07,1.17-3.31
	c0-0.95-0.24-1.83-0.71-2.64c-0.47-0.81-1.11-1.45-1.92-1.92s-1.68-0.7-2.62-0.7c-1.56,0-2.85,0.58-3.88,1.74
	c-0.82-0.44-1.72-0.66-2.71-0.66c-1.41,0-2.67,0.44-3.76,1.32s-1.79,2-2.1,3.36c-1.11,0.26-2.02,0.84-2.74,1.74
	S1.51,15.74,1.51,16.89z M6.91,23.75c0,0.17,0.05,0.33,0.16,0.49c0.11,0.16,0.27,0.27,0.49,0.33c0.11,0.02,0.2,0.04,0.27,0.04
	c0.39,0,0.65-0.21,0.77-0.64l1.58-5.88c0.07-0.24,0.04-0.46-0.08-0.67c-0.12-0.21-0.3-0.33-0.53-0.38
	c-0.22-0.07-0.43-0.05-0.63,0.07c-0.2,0.11-0.34,0.28-0.41,0.51l-1.58,5.91C6.93,23.66,6.91,23.73,6.91,23.75z M9.52,26.83
	c0,0.19,0.05,0.36,0.15,0.52c0.1,0.16,0.27,0.26,0.52,0.3c0.11,0.02,0.2,0.04,0.26,0.04c0.16,0,0.31-0.06,0.45-0.17
	c0.14-0.12,0.23-0.28,0.27-0.48l2.4-8.93c0.06-0.23,0.04-0.45-0.07-0.64s-0.28-0.33-0.5-0.4c-0.23-0.07-0.45-0.05-0.65,0.07
	c-0.2,0.11-0.34,0.28-0.4,0.51l-2.4,8.93C9.53,26.73,9.52,26.82,9.52,26.83z M9.94,4.6c0,0.24,0.08,0.44,0.25,0.61l0.65,0.66
	c0.19,0.15,0.4,0.22,0.62,0.22c0.21,0,0.41-0.08,0.58-0.23c0.17-0.16,0.26-0.35,0.26-0.59c0-0.24-0.08-0.46-0.24-0.64l-0.64-0.65
	c-0.18-0.17-0.38-0.25-0.6-0.25c-0.24,0-0.45,0.09-0.62,0.26C10.03,4.16,9.94,4.37,9.94,4.6z M13.67,23.77
	c0,0.16,0.05,0.32,0.15,0.47s0.26,0.26,0.46,0.32c0.11,0.02,0.2,0.04,0.25,0.04c0.17,0,0.34-0.05,0.49-0.15
	c0.15-0.1,0.25-0.26,0.3-0.49l1.58-5.88c0.06-0.23,0.04-0.45-0.07-0.64c-0.11-0.2-0.28-0.33-0.5-0.4c-0.24-0.07-0.45-0.05-0.65,0.07
	c-0.2,0.11-0.33,0.28-0.39,0.51l-1.58,5.91C13.69,23.68,13.67,23.76,13.67,23.77z M15.3,9.03c0.71-0.67,1.53-1,2.48-1
	c0.98,0,1.82,0.35,2.5,1.04c0.69,0.69,1.03,1.53,1.03,2.52c0,0.62-0.17,1.24-0.52,1.85c-0.97-0.97-2.13-1.45-3.49-1.45h-0.33
	C16.7,10.81,16.14,9.83,15.3,9.03z M16.92,3.78c0,0.23,0.08,0.43,0.25,0.59c0.17,0.16,0.37,0.24,0.61,0.24
	c0.23,0,0.43-0.08,0.59-0.23c0.16-0.16,0.24-0.35,0.24-0.59V1.73c0-0.26-0.08-0.47-0.23-0.63c-0.16-0.16-0.35-0.24-0.59-0.24
	c-0.25,0-0.46,0.08-0.62,0.25s-0.24,0.37-0.24,0.62V3.78z M22.45,6.06c0,0.24,0.09,0.44,0.27,0.59c0.14,0.16,0.32,0.24,0.55,0.26
	c0.23,0.02,0.44-0.07,0.62-0.26l1.44-1.43c0.18-0.17,0.26-0.38,0.26-0.63c0-0.24-0.08-0.45-0.25-0.61
	c-0.17-0.16-0.37-0.24-0.61-0.24c-0.21,0-0.4,0.08-0.58,0.25l-1.43,1.44C22.54,5.6,22.45,5.81,22.45,6.06z M23.26,17.91
	c0,0.24,0.08,0.45,0.24,0.63l0.65,0.63c0.18,0.14,0.38,0.21,0.6,0.21l0.02,0.02c0.23,0,0.42-0.08,0.58-0.24
	c0.16-0.16,0.24-0.37,0.24-0.61c0-0.24-0.09-0.43-0.26-0.58l-0.62-0.66c-0.18-0.16-0.39-0.24-0.62-0.24s-0.43,0.08-0.59,0.25
	S23.26,17.67,23.26,17.91z M24.72,11.58c0,0.24,0.09,0.43,0.26,0.59c0.18,0.18,0.38,0.26,0.62,0.26h2.03c0.24,0,0.44-0.08,0.61-0.25
	c0.17-0.17,0.25-0.37,0.25-0.6c0-0.24-0.08-0.44-0.25-0.61s-0.37-0.26-0.61-0.26H25.6c-0.24,0-0.44,0.09-0.62,0.26
	C24.8,11.14,24.72,11.34,24.72,11.58z"></path>
  </symbol>
   <symbol version="1.1" id="showers" xmlns="http://www.w3.org/2000/svg" xmlns:xlink="http://www.w3.org/1999/xlink" x="0px" y="0px" xml:space="preserve" viewBox="0 0 30 30">
    <path d="M4.6,16.93c0-1.16,0.36-2.18,1.09-3.08c0.72-0.9,1.65-1.48,2.78-1.73c0.29-1.38,0.98-2.5,2.07-3.39S12.88,7.4,14.3,7.4
	c1.39,0,2.63,0.43,3.72,1.28c1.08,0.85,1.79,1.95,2.12,3.3h0.34c0.9,0,1.73,0.22,2.48,0.66c0.76,0.44,1.35,1.04,1.79,1.8
	c0.43,0.76,0.65,1.59,0.65,2.49c0,1.34-0.46,2.48-1.37,3.44c-0.92,0.96-2.04,1.46-3.37,1.5c-0.12,0-0.18-0.06-0.18-0.17v-1.34
	c0-0.11,0.06-0.17,0.18-0.17c0.84-0.07,1.57-0.42,2.17-1.05s0.9-1.37,0.9-2.22c0-0.89-0.32-1.66-0.96-2.31
	c-0.64-0.64-1.4-0.97-2.29-0.97h-1.63c-0.12,0-0.19-0.06-0.22-0.18l-0.07-0.57c-0.07-0.71-0.3-1.36-0.7-1.94s-0.91-1.03-1.53-1.36
	c-0.62-0.33-1.3-0.49-2.02-0.49c-1.1,0-2.05,0.36-2.86,1.09c-0.81,0.73-1.27,1.64-1.37,2.72l-0.07,0.54c0,0.09-0.05,0.14-0.16,0.14
	L9.31,13.7c-0.84,0.07-1.55,0.41-2.11,1.03c-0.57,0.62-0.85,1.35-0.85,2.2c0,0.87,0.3,1.62,0.89,2.25c0.59,0.63,1.31,0.97,2.17,1.02
	c0.12,0,0.18,0.06,0.18,0.17v1.34c0,0.11-0.06,0.17-0.18,0.17c-0.66-0.03-1.28-0.18-1.88-0.45S6.42,20.8,6,20.36
	c-0.43-0.44-0.77-0.95-1.02-1.55S4.6,17.59,4.6,16.93z M10.02,23.7c0-0.03,0.01-0.08,0.02-0.13s0.02-0.09,0.02-0.11l0.27-1.03
	c0.07-0.22,0.2-0.4,0.4-0.51c0.2-0.12,0.41-0.14,0.64-0.07c0.23,0.07,0.4,0.2,0.52,0.4c0.12,0.2,0.14,0.41,0.07,0.64l-0.24,1.01
	c-0.13,0.44-0.38,0.66-0.76,0.66c-0.03,0-0.05,0-0.09,0c-0.03,0-0.07-0.01-0.11-0.01c-0.04-0.01-0.07-0.01-0.1-0.01
	c-0.21-0.06-0.37-0.18-0.48-0.34S10.02,23.86,10.02,23.7z M11.34,18.88c0-0.02,0-0.06,0.01-0.11c0.01-0.05,0.01-0.08,0.01-0.09
	l0.3-1.05c0.06-0.19,0.17-0.34,0.32-0.45c0.15-0.1,0.31-0.15,0.47-0.15c0.02,0,0.05,0,0.08,0c0.03,0,0.06,0.01,0.09,0.01
	c0.03,0.01,0.06,0.01,0.08,0.01c0.23,0.07,0.4,0.2,0.51,0.4c0.12,0.2,0.14,0.41,0.07,0.64l-0.24,1c-0.07,0.28-0.2,0.47-0.4,0.59
	s-0.42,0.12-0.65,0.02c-0.22-0.06-0.38-0.17-0.49-0.34S11.34,19.04,11.34,18.88z M12.57,26.83c0-0.03,0.01-0.07,0.02-0.13
	s0.02-0.09,0.02-0.12l0.29-0.99c0.06-0.24,0.2-0.42,0.4-0.54c0.2-0.12,0.42-0.15,0.65-0.08c0.23,0.07,0.39,0.2,0.51,0.41
	s0.13,0.42,0.07,0.65l-0.25,1.04c-0.11,0.41-0.37,0.61-0.8,0.61c-0.05,0-0.13-0.01-0.24-0.04c-0.22-0.04-0.38-0.14-0.49-0.3
	C12.63,27.18,12.57,27.01,12.57,26.83z M13.91,22.06c0-0.06,0.01-0.14,0.04-0.25l0.27-1.03c0.07-0.23,0.2-0.4,0.41-0.51
	c0.2-0.12,0.42-0.14,0.65-0.07c0.23,0.06,0.39,0.19,0.51,0.39c0.11,0.2,0.13,0.41,0.06,0.65l-0.24,0.99
	c-0.13,0.45-0.37,0.68-0.72,0.68c-0.04,0-0.15-0.02-0.31-0.06c-0.22-0.04-0.38-0.14-0.49-0.3C13.97,22.4,13.91,22.23,13.91,22.06z
	 M16.73,23.74c0-0.07,0.01-0.15,0.03-0.24l0.28-0.99c0.07-0.24,0.2-0.42,0.41-0.54s0.41-0.15,0.63-0.09
	c0.23,0.07,0.41,0.2,0.53,0.41c0.12,0.2,0.15,0.41,0.09,0.63l-0.29,1.06c-0.1,0.41-0.36,0.61-0.79,0.61c-0.09,0-0.18-0.01-0.26-0.03
	c-0.2-0.04-0.35-0.14-0.46-0.3C16.8,24.08,16.74,23.91,16.73,23.74z M18.11,18.98c0-0.03,0.02-0.12,0.05-0.26l0.3-1.03
	c0.04-0.21,0.13-0.37,0.29-0.47c0.16-0.1,0.32-0.15,0.49-0.14c0.04-0.01,0.13,0,0.24,0.03c0.22,0.05,0.39,0.18,0.52,0.38
	c0.12,0.17,0.14,0.38,0.07,0.65l-0.24,1.03c-0.13,0.43-0.38,0.65-0.76,0.65c-0.06,0-0.17-0.02-0.34-0.06
	c-0.21-0.06-0.36-0.17-0.46-0.31C18.16,19.29,18.11,19.14,18.11,18.98z"></path>
  </symbol>
  <symbol version="1.1" id="dayshowers" xmlns="http://www.w3.org/2000/svg" xmlns:xlink="http://www.w3.org/1999/xlink" x="0px" y="0px" xml:space="preserve" viewBox="0 0 30 30">
    <path d="M1.56,16.88c0,1.33,0.46,2.47,1.39,3.43s2.06,1.46,3.4,1.53c0.11,0,0.17-0.06,0.17-0.17v-1.34c0-0.12-0.06-0.18-0.17-0.18
	c-0.85-0.04-1.57-0.38-2.17-1.02s-0.89-1.39-0.89-2.25c0-0.84,0.28-1.56,0.84-2.17s1.26-0.96,2.1-1.06l0.5-0.04
	c0.13,0,0.2-0.06,0.2-0.18l0.06-0.53c0.11-1.08,0.56-1.99,1.37-2.71c0.81-0.73,1.76-1.09,2.86-1.09c1.09,0,2.05,0.36,2.86,1.09
	c0.81,0.73,1.27,1.63,1.37,2.71l0.07,0.57c0,0.12,0.06,0.18,0.18,0.18h1.67c0.88,0,1.63,0.32,2.27,0.96
	c0.64,0.64,0.96,1.39,0.96,2.27c0,0.85-0.3,1.59-0.9,2.22s-1.32,0.98-2.16,1.05c-0.11,0-0.17,0.06-0.17,0.18v1.34
	c0,0.11,0.06,0.17,0.17,0.17c0.88-0.02,1.67-0.26,2.4-0.72s1.3-1.05,1.71-1.8c0.42-0.75,0.62-1.56,0.62-2.44
	c0-0.71-0.14-1.37-0.41-1.96c0.76-0.94,1.13-2.03,1.13-3.28c0-0.71-0.14-1.39-0.41-2.04c-0.27-0.65-0.65-1.2-1.12-1.67
	C21,7.46,20.44,7.09,19.8,6.82c-0.65-0.28-1.33-0.41-2.04-0.41c-1.51,0-2.78,0.55-3.81,1.66c-0.79-0.43-1.7-0.64-2.73-0.64
	c-1.41,0-2.66,0.44-3.75,1.31s-1.77,1.99-2.07,3.35c-1.12,0.26-2.05,0.83-2.77,1.72C1.92,14.7,1.56,15.73,1.56,16.88z M6.97,23.58
	c0,0.18,0.05,0.36,0.16,0.53c0.11,0.18,0.26,0.29,0.45,0.36c0.19,0.07,0.4,0.05,0.61-0.06c0.22-0.11,0.36-0.29,0.44-0.55l0.25-1.05
	c0.07-0.21,0.05-0.41-0.07-0.62c-0.12-0.21-0.29-0.35-0.51-0.42c-0.25-0.06-0.47-0.03-0.67,0.08s-0.32,0.3-0.37,0.53l-0.28,0.99
	C6.98,23.42,6.97,23.49,6.97,23.58z M8.28,18.86c0,0.38,0.21,0.64,0.64,0.79c0.22,0.08,0.43,0.06,0.64-0.05
	c0.21-0.11,0.34-0.29,0.41-0.53l0.24-1.03c0.07-0.21,0.05-0.41-0.07-0.62c-0.11-0.21-0.28-0.35-0.51-0.42
	c-0.24-0.06-0.47-0.04-0.67,0.08s-0.32,0.29-0.37,0.52l-0.3,1.02C8.29,18.7,8.28,18.78,8.28,18.86z M9.5,26.75
	c0,0.16,0.06,0.33,0.17,0.5c0.11,0.17,0.28,0.29,0.49,0.36c0.01,0,0.04,0,0.1,0.01c0.06,0.01,0.11,0.01,0.15,0.01
	c0.14,0,0.26-0.02,0.37-0.07c0.19-0.08,0.33-0.27,0.41-0.58l0.27-0.99c0.07-0.23,0.05-0.45-0.07-0.65c-0.12-0.2-0.29-0.34-0.51-0.4
	c-0.23-0.07-0.45-0.05-0.65,0.07c-0.2,0.12-0.34,0.29-0.4,0.51l-0.28,1.02C9.51,26.63,9.5,26.7,9.5,26.75z M9.96,4.68
	c0,0.25,0.08,0.46,0.25,0.62l0.66,0.65c0.34,0.34,0.73,0.34,1.17,0c0.16-0.17,0.24-0.38,0.24-0.61c0-0.23-0.08-0.43-0.24-0.61
	l-0.63-0.66c-0.16-0.16-0.36-0.24-0.6-0.24c-0.23,0-0.43,0.08-0.6,0.25C10.04,4.24,9.96,4.44,9.96,4.68z M10.85,21.96
	c0,0.17,0.05,0.34,0.16,0.51c0.11,0.17,0.26,0.28,0.47,0.35c0.23,0.07,0.44,0.05,0.64-0.05c0.19-0.1,0.33-0.29,0.4-0.56l0.24-1.01
	c0.07-0.23,0.05-0.45-0.06-0.65c-0.11-0.2-0.28-0.34-0.5-0.41c-0.25-0.07-0.48-0.04-0.68,0.08c-0.2,0.12-0.33,0.3-0.37,0.53
	l-0.28,1.03C10.85,21.81,10.85,21.87,10.85,21.96z M13.63,23.68c0.02,0.38,0.23,0.65,0.63,0.83l0.25,0.04
	c0.16,0,0.32-0.05,0.47-0.16c0.15-0.11,0.26-0.27,0.32-0.5l0.29-1.01c0.06-0.24,0.03-0.46-0.09-0.66c-0.12-0.2-0.3-0.33-0.53-0.37
	c-0.21-0.07-0.41-0.05-0.62,0.07s-0.34,0.29-0.41,0.51l-0.27,1.02c-0.01,0.02-0.01,0.05-0.02,0.08s-0.01,0.06-0.02,0.08
	S13.63,23.66,13.63,23.68z M15.03,18.92c0,0.16,0.05,0.32,0.15,0.48c0.1,0.16,0.25,0.27,0.45,0.32l0.25,0.03
	c0.19,0,0.37-0.06,0.52-0.18s0.24-0.28,0.28-0.47l0.27-0.99c0.07-0.24,0.05-0.45-0.07-0.65c-0.11-0.2-0.28-0.33-0.51-0.39
	c-0.23-0.07-0.45-0.05-0.64,0.06c-0.2,0.11-0.33,0.28-0.39,0.5l-0.3,1.06C15.04,18.77,15.03,18.85,15.03,18.92z M15.36,9.06
	c0.66-0.64,1.46-0.96,2.4-0.96c0.98,0,1.82,0.35,2.51,1.04c0.69,0.69,1.04,1.53,1.04,2.51c0,0.56-0.16,1.15-0.47,1.76
	c-0.96-0.96-2.11-1.43-3.47-1.43h-0.34C16.77,10.84,16.21,9.87,15.36,9.06z M16.9,3.83c0,0.25,0.08,0.45,0.24,0.61
	c0.16,0.16,0.36,0.24,0.61,0.24s0.45-0.08,0.61-0.24c0.16-0.16,0.24-0.36,0.24-0.61V1.81c0-0.25-0.08-0.46-0.24-0.62
	c-0.16-0.16-0.36-0.24-0.61-0.24s-0.45,0.08-0.61,0.24c-0.16,0.16-0.24,0.37-0.24,0.62V3.83z M22.45,6.12
	c0,0.25,0.08,0.45,0.23,0.61c0.21,0.17,0.41,0.25,0.62,0.25c0.19,0,0.38-0.08,0.59-0.25l1.43-1.43c0.16-0.18,0.24-0.39,0.24-0.63
	c0-0.24-0.08-0.44-0.24-0.6c-0.16-0.16-0.36-0.24-0.59-0.24s-0.43,0.08-0.61,0.24L22.68,5.5C22.53,5.68,22.45,5.88,22.45,6.12z
	 M23.24,17.95c0,0.23,0.09,0.44,0.26,0.63l0.62,0.64c0.21,0.21,0.41,0.31,0.62,0.31c0.19,0,0.39-0.1,0.58-0.31
	c0.18-0.18,0.27-0.39,0.26-0.61c-0.01-0.23-0.09-0.43-0.26-0.6l-0.65-0.66c-0.16-0.16-0.35-0.24-0.57-0.24
	c-0.24,0-0.44,0.08-0.61,0.25C23.33,17.52,23.24,17.72,23.24,17.95z M24.71,11.64c0,0.22,0.08,0.42,0.24,0.58
	c0.16,0.16,0.36,0.24,0.58,0.24h2.04c0.26,0,0.47-0.08,0.63-0.23c0.16-0.16,0.24-0.35,0.24-0.59c0-0.25-0.08-0.46-0.25-0.62
	c-0.17-0.16-0.37-0.24-0.62-0.24h-2.04c-0.23,0-0.43,0.08-0.59,0.25C24.79,11.2,24.71,11.41,24.71,11.64z"></path>
  </symbol>
</svg>